<?xml version="1.0" encoding="iso-8859-1"?>
<!-- Uploaded to: SVG Repo, www.svgrepo.com, Generator: SVG Repo Mixer Tools -->
<svg version="1.1" id="Layer_1" xmlns="http://www.w3.org/2000/svg" xmlns:xlink="http://www.w3.org/1999/xlink" 
	 viewBox="0 0 512 512" xml:space="preserve">
<g>
	<rect x="328.651" y="254.943" style="fill:#F2BF7E;" width="176.399" height="40.091"/>
	<rect x="328.651" y="295.033" style="fill:#F2BF7E;" width="176.399" height="40.091"/>
	<rect x="328.651" y="335.124" style="fill:#F2BF7E;" width="176.399" height="40.091"/>
	<rect x="328.651" y="375.214" style="fill:#F2BF7E;" width="176.399" height="40.091"/>
	<rect x="312.613" y="415.315" style="fill:#F2BF7E;" width="192.437" height="40.091"/>
	<rect x="304.599" y="455.405" style="fill:#F2BF7E;" width="200.462" height="40.091"/>
</g>
<g>
	<rect x="384.78" y="254.943" style="fill:#E2804F;" width="40.091" height="40.091"/>
	<rect x="464.96" y="254.943" style="fill:#E2804F;" width="40.091" height="40.091"/>
	<rect x="344.689" y="295.033" style="fill:#E2804F;" width="40.091" height="40.091"/>
	<rect x="424.87" y="295.033" style="fill:#E2804F;" width="40.091" height="40.091"/>
	<rect x="384.78" y="335.124" style="fill:#E2804F;" width="40.091" height="40.091"/>
	<rect x="464.96" y="335.124" style="fill:#E2804F;" width="40.091" height="40.091"/>
	<rect x="344.689" y="375.214" style="fill:#E2804F;" width="40.091" height="40.091"/>
	<rect x="424.87" y="375.214" style="fill:#E2804F;" width="40.091" height="40.091"/>
	<rect x="384.78" y="415.315" style="fill:#E2804F;" width="40.091" height="40.091"/>
	<rect x="464.96" y="415.315" style="fill:#E2804F;" width="40.091" height="40.091"/>
	<rect x="344.689" y="455.405" style="fill:#E2804F;" width="40.091" height="40.091"/>
	<rect x="304.599" y="415.315" style="fill:#E2804F;" width="40.091" height="40.091"/>
	<rect x="424.87" y="455.405" style="fill:#E2804F;" width="40.091" height="40.091"/>
</g>
<rect x="248.471" y="14.395" style="fill:#F2BF7E;" width="240.552" height="40.091"/>
<g>
	<rect x="288.561" y="14.395" style="fill:#E2804F;" width="40.091" height="40.091"/>
	<rect x="368.742" y="14.395" style="fill:#E2804F;" width="40.091" height="40.091"/>
	<rect x="448.922" y="14.395" style="fill:#E2804F;" width="40.091" height="40.091"/>
</g>
<rect x="224.408" y="54.487" style="fill:#F2BF7E;" width="240.552" height="40.091"/>
<g>
	<rect x="264.509" y="54.487" style="fill:#E2804F;" width="40.091" height="40.091"/>
	<rect x="344.689" y="54.487" style="fill:#E2804F;" width="40.091" height="40.091"/>
	<rect x="424.87" y="54.487" style="fill:#E2804F;" width="40.091" height="40.091"/>
</g>
<rect x="208.381" y="94.582" style="fill:#F2BF7E;" width="240.552" height="40.091"/>
<g>
	<rect x="248.471" y="94.582" style="fill:#E2804F;" width="40.091" height="40.091"/>
	<rect x="328.651" y="94.582" style="fill:#E2804F;" width="40.091" height="40.091"/>
	<rect x="408.832" y="94.582" style="fill:#E2804F;" width="40.091" height="40.091"/>
</g>
<rect x="240.446" y="134.672" style="fill:#F2BF7E;" width="240.552" height="40.091"/>
<g>
	<rect x="280.537" y="134.672" style="fill:#E2804F;" width="40.091" height="40.091"/>
	<rect x="360.728" y="134.672" style="fill:#E2804F;" width="40.091" height="40.091"/>
	<rect x="440.908" y="134.672" style="fill:#E2804F;" width="40.091" height="40.091"/>
</g>
<rect x="264.509" y="174.763" style="fill:#F2BF7E;" width="232.528" height="40.091"/>
<g>
	<rect x="296.575" y="174.763" style="fill:#E2804F;" width="40.091" height="40.091"/>
	<rect x="376.755" y="174.763" style="fill:#E2804F;" width="40.091" height="40.091"/>
	<rect x="456.946" y="174.763" style="fill:#E2804F;" width="40.091" height="40.091"/>
</g>
<rect x="304.599" y="214.853" style="fill:#F2BF7E;" width="176.399" height="40.091"/>
<circle style="fill:#D4E4AC;" cx="176.304" cy="327.11" r="144.333"/>
<circle style="fill:#FFFFFF;" cx="176.304" cy="327.11" r="88.205"/>
<path style="fill:#F2BF7E;" d="M176.303,158.724c-92.995,0-168.384,75.388-168.384,168.384s75.388,168.384,168.384,168.384
	s168.384-75.388,168.384-168.384S269.299,158.724,176.303,158.724z M176.303,471.438c-79.711,0-144.329-64.618-144.329-144.329
	c0-79.712,64.618-144.329,144.329-144.329s144.329,64.618,144.329,144.329C320.633,406.819,256.015,471.438,176.303,471.438z"/>
<g>
	<rect x="360.728" y="214.853" style="fill:#E2804F;" width="40.091" height="40.091"/>
	<rect x="440.908" y="214.853" style="fill:#E2804F;" width="40.091" height="40.091"/>
	<path style="fill:#E2804F;" d="M170.682,388.569v-15.057c-9.78-0.314-19.56-3.105-25.151-6.832l4.19-14.596
		c6.053,3.571,14.752,6.832,24.219,6.832c9.78,0,16.459-4.811,16.459-12.267c0-6.984-5.434-11.488-16.922-15.68
		c-16.303-5.9-26.866-13.351-26.866-27.79c0-13.354,9.318-23.601,25.002-26.396v-15.215h12.732v14.44
		c9.78,0.309,16.452,2.639,21.424,5.121l-4.19,14.287c-3.727-1.71-10.564-5.281-21.119-5.281c-10.869,0-14.752,5.591-14.752,10.869
		c0,6.366,5.591,9.937,18.793,15.218c17.383,6.519,25.151,14.905,25.151,28.722c0,13.198-9.162,24.842-26.24,27.638v15.99h-12.731
		V388.569z"/>
</g>
<path d="M176.303,150.806C79.089,150.806,0,229.894,0,327.109s79.089,176.303,176.303,176.303s176.303-79.089,176.303-176.303
	S273.518,150.806,176.303,150.806z M336.77,327.109c0,6.784-0.428,13.468-1.248,20.034l-8.108-1.43
	c0.746-6.1,1.138-12.307,1.138-18.604c0-6.297-0.392-12.504-1.138-18.604l8.108-1.43C336.342,313.64,336.77,320.325,336.77,327.109z
	 M116.862,467.27l-2.815,7.733c-12.424-5.25-24.05-12.027-34.652-20.085l5.284-6.298C94.545,456.077,105.34,462.365,116.862,467.27z
	 M131.74,472.697c11.503,3.529,23.581,5.727,36.055,6.417v8.233c-13.459-0.706-26.483-3.08-38.871-6.915L131.74,472.697z
	 M183.634,479.177c12.892-0.615,25.368-2.84,37.233-6.48l2.816,7.736c-12.748,3.948-26.172,6.339-40.048,6.966v-8.223H183.634z
	 M235.745,467.27c11.521-4.904,22.316-11.193,32.181-18.65l5.284,6.298c-10.602,8.058-22.228,14.836-34.652,20.085L235.745,467.27z
	 M176.303,463.519c-75.217,0-136.41-61.193-136.41-136.41s61.193-136.41,136.41-136.41s136.41,61.193,136.41,136.41
	S251.521,463.519,176.303,463.519z M15.838,327.109c0-6.784,0.428-13.468,1.248-20.034l8.108,1.43
	c-0.746,6.099-1.138,12.306-1.138,18.604c0,6.298,0.392,12.504,1.138,18.604l-8.108,1.43
	C16.265,340.577,15.838,333.892,15.838,327.109z M27.931,292.906l-8.1-1.429c3.013-13.237,7.664-25.858,13.734-37.635l7.123,4.113
	C35.079,268.908,30.761,280.625,27.931,292.906z M27.931,361.313c2.83,12.28,7.149,23.997,12.757,34.95l-7.123,4.112
	c-6.07-11.777-10.721-24.397-13.734-37.634L27.931,361.313z M235.745,186.948l2.815-7.733c12.424,5.25,24.05,12.027,34.652,20.085
	l-5.284,6.298C258.061,198.14,247.266,191.852,235.745,186.948z M220.867,181.52c-11.864-3.639-24.34-5.865-37.233-6.48v-8.223
	c13.876,0.627,27.3,3.02,40.048,6.966L220.867,181.52z M167.796,175.103c-12.475,0.691-24.553,2.889-36.055,6.417l-2.816-7.736
	c12.388-3.836,25.412-6.208,38.871-6.915V175.103z M116.862,186.948c-11.521,4.904-22.316,11.193-32.182,18.65l-5.284-6.298
	c10.602-8.058,22.228-14.836,34.652-20.085L116.862,186.948z M311.919,257.954l7.123-4.112c6.07,11.777,10.721,24.397,13.734,37.635
	l-8.1,1.429C321.846,280.625,317.528,268.908,311.919,257.954z M324.676,361.313l8.1,1.429
	c-3.013,13.237-7.664,25.858-13.734,37.634l-7.123-4.112C317.528,385.31,321.846,373.592,324.676,361.313z M311.098,240.141
	l-7.127,4.115c-6.8-10.442-14.845-20-23.924-28.467l5.287-6.3C295.136,218.581,303.804,228.875,311.098,240.141z M67.273,209.49
	l5.287,6.3c-9.078,8.467-17.124,18.024-23.923,28.465l-7.127-4.115C48.803,228.875,57.471,218.582,67.273,209.49z M41.509,414.076
	l7.127-4.115c6.8,10.442,14.845,20,23.923,28.465l-5.287,6.3C57.471,435.636,48.803,425.342,41.509,414.076z M285.334,444.728
	l-5.287-6.3c9.078-8.467,17.124-18.024,23.924-28.466l7.127,4.115C303.804,425.342,295.136,435.636,285.334,444.728z"/>
<path d="M288.162,320.406h-15.975c-3.286-47.461-41.175-85.55-88.553-89.14v-16.444h-15.838v16.547
	c-46.826,4.126-84.118,41.97-87.376,89.037H64.324v15.838H80.62c4.351,45.933,41.159,82.549,87.176,86.604v16.868h15.838v-16.765
	c46.567-3.528,83.966-40.383,88.354-86.708h16.174V320.406z M176.303,407.392c-44.268,0-80.283-36.015-80.283-80.283
	s36.015-80.283,80.283-80.283s80.283,36.015,80.283,80.283S220.571,407.392,176.303,407.392z"/>
<path d="M487.716,248.609v-24.284h15.838v-55.96h-15.838v-40.122H456.04v-24.284h15.838V63.837h24.284V7.878H239.593V48h-24.284
	v40.122h-15.838v55.96h31.675v14.782h15.838v-14.782h24.284v22.173h15.838v-22.173h24.284v24.284h-23.228v15.838h40.122v24.284
	v6.335v9.503h24.284v24.284v6.335v9.503h23.228v23.228h-14.782v15.838h14.782v24.284h-14.782v15.838h14.782v24.284h-14.782v15.838
	h14.782v24.284h-30.619v7.391h-9.503v32.731h-23.228V464h23.228v24.284H311.39v-25.34h-15.838v41.178H512V464v-8.447v-31.675v-8.447
	v-31.675v-8.447v-31.675v-8.447v-31.675v-8.447v-46.457H487.716z M375.797,488.285h-24.284V464h24.284V488.285z M375.797,448.163
	h-24.284v-24.284h24.284V448.163z M487.716,208.487h-24.284v-24.284h1.056h23.228V208.487z M407.472,184.203v24.284h-24.284v-24.284
	H407.472z M400.081,128.243h-24.284v-24.284h24.284V128.243z M407.472,224.325h24.284v24.284h-24.284V224.325z M431.756,144.081
	v24.284h-24.284v-24.284H431.756z M415.919,128.243v-24.284h24.284v24.284H415.919z M423.309,208.487v-24.284h24.284v24.284H423.309
	z M447.594,224.325h24.284v24.284h-24.284V224.325z M471.878,144.081v24.284h-7.391h-16.893v-24.284H471.878z M456.04,23.715h24.284
	V48H456.04V23.715z M456.04,88.121h-7.391h-16.893V63.837h24.284V88.121z M415.919,23.715h24.284V48h-24.284V23.715z
	 M415.919,88.121h-24.284V63.837h24.284V88.121z M375.797,23.715h24.284V48h-24.284V23.715z M375.797,88.121h-24.284V63.837h24.284
	V88.121z M359.959,103.959v24.284h-24.284v-24.284H359.959z M335.675,23.715h24.284V48h-24.284V23.715z M335.675,88.121H311.39
	V63.837h24.284V88.121z M295.553,23.715h24.284V48h-24.284V23.715z M255.431,23.715h24.284V48h-24.284V23.715z M239.593,128.243
	h-8.447h-15.838v-24.284h24.284V128.243z M231.147,88.121V63.837h24.284v24.284H231.147z M279.715,128.243h-24.284v-24.284h24.284
	V128.243z M271.268,88.121V63.837h24.284v24.284H271.268z M319.837,128.243h-24.284v-24.284h24.284V128.243z M327.228,168.365
	v-24.284h24.284v24.284H327.228z M367.35,208.487h-23.228v-24.284h23.228V208.487z M367.35,144.081h24.284v24.284H367.35V144.081z
	 M368.406,248.609v-24.284h23.228v24.284H368.406z M415.919,488.285h-24.284V464h24.284V488.285z M415.919,448.163h-24.284v-24.284
	h24.284V448.163z M415.919,408.041h-24.284v-24.284h24.284V408.041z M415.919,367.919h-24.284v-24.284h24.284V367.919z
	 M415.919,327.797h-24.284v-24.284h24.284V327.797z M415.919,287.675h-24.284v-23.228h24.284V287.675z M456.04,488.285h-24.284V464
	h24.284V488.285z M456.04,448.163h-24.284v-24.284h24.284V448.163z M456.04,408.041h-24.284v-24.284h24.284V408.041z
	 M456.04,367.919h-24.284v-24.284h24.284V367.919z M456.04,327.797h-24.284v-24.284h24.284V327.797z M456.04,287.675h-24.284
	v-23.228h24.284V287.675z M496.162,488.285h-24.284V464h24.284V488.285z M496.162,448.163h-24.284v-24.284h24.284V448.163z
	 M496.162,408.041h-24.284v-24.284h24.284V408.041z M496.162,367.919h-24.284v-24.284h24.284V367.919z M496.162,327.797h-24.284
	v-24.284h24.284V327.797z M496.162,287.675h-24.284v-23.228h9.503h6.335h8.447V287.675z"/>
</svg>